<?xml version="1.0" standalone="no"?>
<!DOCTYPE svg PUBLIC "-//W3C//DTD SVG 20010904//EN"
 "http://www.w3.org/TR/2001/REC-SVG-20010904/DTD/svg10.dtd">
<svg version="1.0" xmlns="http://www.w3.org/2000/svg"
 width="360.000000pt" height="360.000000pt" viewBox="0 0 360.000000 360.000000"
 preserveAspectRatio="xMidYMid meet">
<metadata>
Created by potrace 1.11, written by Peter Selinger 2001-2013
</metadata>
<g transform="translate(0.000000,360.000000) scale(0.100000,-0.100000)"
fill="#000000" stroke="none">
<path d="M1737 3584 c-1 -1 -40 -5 -87 -8 -47 -3 -96 -8 -110 -11 -13 -2 -40
-7 -60 -10 -192 -29 -452 -132 -635 -253 -81 -54 -70 -46 -162 -120 -207 -170
-375 -397 -496 -672 -35 -79 -91 -273 -101 -350 -3 -19 -7 -44 -9 -55 -25
-116 -27 -359 -3 -505 18 -105 21 -121 35 -175 38 -150 76 -252 138 -369 18
-34 46 -87 63 -120 17 -32 43 -73 58 -90 15 -18 39 -50 52 -72 25 -42 128
-148 199 -204 24 -19 50 -41 57 -47 7 -7 18 -13 24 -13 6 0 34 -23 62 -50 29
-28 76 -67 105 -86 76 -50 261 -137 373 -175 56 -19 101 -40 109 -52 27 -38
205 -99 331 -114 76 -9 205 -8 265 1 147 22 312 84 335 125 5 11 27 25 47 32
21 6 44 16 51 22 6 5 12 7 12 4 0 -9 155 59 230 100 91 51 190 116 258 170 58
46 228 215 270 268 41 52 142 204 142 214 0 5 3 11 8 13 17 7 110 211 137 298
9 30 23 73 30 95 15 44 31 125 51 250 12 71 23 275 16 289 -3 4 -6 33 -7 65
-3 66 -12 127 -30 211 -3 14 -7 34 -9 45 -11 60 -49 182 -72 232 -8 17 -14 36
-14 41 0 14 -115 237 -142 276 -103 148 -264 327 -378 420 -89 73 -280 187
-391 235 -91 39 -258 92 -339 107 -14 2 -47 9 -75 14 -73 14 -329 32 -338 24z"/>
</g>
</svg>
